<mxfile host="app.diagrams.net" agent="Mozilla/5.0 (Windows NT 10.0; Win64; x64) AppleWebKit/537.36 (KHTML, like Gecko) Chrome/128.0.0.0 Safari/537.36 OPR/114.0.0.0" version="24.8.6">
  <diagram name="PÃ¡gina-1" id="wPoTjop9F4gzZ_P1RDRB">
    <mxGraphModel dx="1393" dy="801" grid="1" gridSize="10" guides="1" tooltips="1" connect="1" arrows="1" fold="1" page="1" pageScale="1" pageWidth="827" pageHeight="1169" math="0" shadow="0">
      <root>
        <mxCell id="0" />
        <mxCell id="1" parent="0" />
        <mxCell id="kMm6trMNZVdOEtCTrY3v-3" value="" style="rounded=1;whiteSpace=wrap;html=1;dashed=1;fillColor=none;" parent="1" vertex="1">
          <mxGeometry y="270" width="240" height="270" as="geometry" />
        </mxCell>
        <mxCell id="kMm6trMNZVdOEtCTrY3v-7" value="" style="rounded=1;whiteSpace=wrap;html=1;dashed=1;fillColor=none;" parent="1" vertex="1">
          <mxGeometry x="250" y="410" width="200" height="130" as="geometry" />
        </mxCell>
        <mxCell id="kMm6trMNZVdOEtCTrY3v-1" value="" style="rounded=1;whiteSpace=wrap;html=1;dashed=1;fillColor=none;" parent="1" vertex="1">
          <mxGeometry width="240" height="260" as="geometry" />
        </mxCell>
        <mxCell id="Kg3V1V4wY09qNhEiFwgA-237" value="MovieLens &lt;b&gt;Database&lt;/b&gt;" style="shape=cylinder3;whiteSpace=wrap;html=1;boundedLbl=1;backgroundOutline=1;size=15;fillColor=#dae8fc;strokeColor=#6c8ebf;" parent="1" vertex="1">
          <mxGeometry x="80" y="40" width="80" height="80" as="geometry" />
        </mxCell>
        <mxCell id="Kg3V1V4wY09qNhEiFwgA-240" value="&lt;b&gt;Data Collection&lt;/b&gt;" style="text;html=1;align=center;verticalAlign=middle;whiteSpace=wrap;rounded=0;" parent="1" vertex="1">
          <mxGeometry x="130" y="130" width="90" height="30" as="geometry" />
        </mxCell>
        <mxCell id="Kg3V1V4wY09qNhEiFwgA-260" value="&lt;b&gt;Clusters of similar films&lt;/b&gt;" style="rounded=1;whiteSpace=wrap;html=1;fillColor=#d5e8d4;strokeColor=#82b366;" parent="1" vertex="1">
          <mxGeometry x="480" y="447.25" width="104" height="79.5" as="geometry" />
        </mxCell>
        <mxCell id="Kg3V1V4wY09qNhEiFwgA-263" value="" style="endArrow=classic;html=1;rounded=0;" parent="1" edge="1">
          <mxGeometry width="50" height="50" relative="1" as="geometry">
            <mxPoint x="200" y="487" as="sourcePoint" />
            <mxPoint x="300" y="487" as="targetPoint" />
          </mxGeometry>
        </mxCell>
        <mxCell id="kMm6trMNZVdOEtCTrY3v-2" value="&lt;u style=&quot;font-size: 14px;&quot;&gt;&lt;font style=&quot;font-size: 14px;&quot;&gt;Pre-processing&lt;/font&gt;&lt;/u&gt;" style="text;html=1;align=center;verticalAlign=middle;whiteSpace=wrap;rounded=0;fontStyle=1;fontSize=14;" parent="1" vertex="1">
          <mxGeometry y="10" width="120" height="30" as="geometry" />
        </mxCell>
        <mxCell id="kMm6trMNZVdOEtCTrY3v-6" value="&lt;u style=&quot;font-size: 14px;&quot;&gt;&lt;font style=&quot;font-size: 14px;&quot;&gt;Learning&lt;/font&gt;&lt;/u&gt;" style="text;html=1;align=center;verticalAlign=middle;whiteSpace=wrap;rounded=0;fontStyle=1;fontSize=14;" parent="1" vertex="1">
          <mxGeometry x="20" y="280" width="60" height="30" as="geometry" />
        </mxCell>
        <mxCell id="kMm6trMNZVdOEtCTrY3v-11" value="&lt;u&gt;&lt;font style=&quot;font-size: 14px;&quot;&gt;Recommending&lt;/font&gt;&lt;/u&gt;" style="text;html=1;align=center;verticalAlign=middle;whiteSpace=wrap;rounded=0;fontStyle=1" parent="1" vertex="1">
          <mxGeometry x="290" y="417.25" width="60" height="30" as="geometry" />
        </mxCell>
        <mxCell id="6KSFJQyAtl1nCRV1jVeP-7" value="&lt;div style=&quot;forced-color-adjust: none;&quot;&gt;&lt;b&gt;Training&amp;nbsp;&lt;/b&gt;with Matrix Factorization using PyTorch&lt;/div&gt;" style="rounded=1;whiteSpace=wrap;html=1;fillColor=#f8cecc;strokeColor=#b85450;" parent="1" vertex="1">
          <mxGeometry x="45" y="320" width="150" height="80" as="geometry" />
        </mxCell>
        <mxCell id="6KSFJQyAtl1nCRV1jVeP-8" value="&lt;b&gt;Testing&lt;/b&gt;&amp;nbsp;with MSE" style="rounded=1;whiteSpace=wrap;html=1;fillColor=#f8cecc;strokeColor=#b85450;" parent="1" vertex="1">
          <mxGeometry x="60" y="457" width="120" height="60" as="geometry" />
        </mxCell>
        <mxCell id="6KSFJQyAtl1nCRV1jVeP-9" value="&lt;b&gt;Cleaning Data&amp;nbsp;&lt;/b&gt;with Pandas" style="rounded=1;whiteSpace=wrap;html=1;fillColor=#dae8fc;strokeColor=#6c8ebf;" parent="1" vertex="1">
          <mxGeometry x="60" y="180" width="120" height="60" as="geometry" />
        </mxCell>
        <mxCell id="6KSFJQyAtl1nCRV1jVeP-12" value="" style="endArrow=classic;html=1;rounded=0;" parent="1" edge="1">
          <mxGeometry width="50" height="50" relative="1" as="geometry">
            <mxPoint x="120" y="130" as="sourcePoint" />
            <mxPoint x="120" y="170" as="targetPoint" />
          </mxGeometry>
        </mxCell>
        <mxCell id="6KSFJQyAtl1nCRV1jVeP-13" value="" style="endArrow=classic;html=1;rounded=0;" parent="1" edge="1">
          <mxGeometry width="50" height="50" relative="1" as="geometry">
            <mxPoint x="120" y="250" as="sourcePoint" />
            <mxPoint x="120" y="310" as="targetPoint" />
          </mxGeometry>
        </mxCell>
        <mxCell id="6KSFJQyAtl1nCRV1jVeP-16" value="" style="endArrow=classic;html=1;rounded=0;" parent="1" edge="1">
          <mxGeometry width="50" height="50" relative="1" as="geometry">
            <mxPoint x="120" y="410" as="sourcePoint" />
            <mxPoint x="120" y="450" as="targetPoint" />
          </mxGeometry>
        </mxCell>
        <mxCell id="6KSFJQyAtl1nCRV1jVeP-17" value="&lt;b&gt;Clustering&lt;/b&gt;&amp;nbsp;with&amp;nbsp;&lt;div&gt;K-means&lt;/div&gt;" style="rounded=1;whiteSpace=wrap;html=1;fillColor=#fff2cc;strokeColor=#d6b656;" parent="1" vertex="1">
          <mxGeometry x="310" y="447.25" width="100" height="79.5" as="geometry" />
        </mxCell>
        <mxCell id="6KSFJQyAtl1nCRV1jVeP-25" value="" style="endArrow=classic;html=1;rounded=0;" parent="1" edge="1">
          <mxGeometry width="50" height="50" relative="1" as="geometry">
            <mxPoint x="420" y="486.66" as="sourcePoint" />
            <mxPoint x="470" y="487" as="targetPoint" />
          </mxGeometry>
        </mxCell>
        <mxCell id="gs1M4umEk7bPt0wRhXeg-2" value="" style="endArrow=classic;html=1;rounded=0;exitX=0;exitY=0.5;exitDx=0;exitDy=0;entryX=0;entryY=0.5;entryDx=0;entryDy=0;" parent="1" source="6KSFJQyAtl1nCRV1jVeP-8" target="6KSFJQyAtl1nCRV1jVeP-7" edge="1">
          <mxGeometry width="50" height="50" relative="1" as="geometry">
            <mxPoint x="20" y="467" as="sourcePoint" />
            <mxPoint x="20" y="507" as="targetPoint" />
            <Array as="points">
              <mxPoint x="20" y="487" />
              <mxPoint x="20" y="360" />
            </Array>
          </mxGeometry>
        </mxCell>
      </root>
    </mxGraphModel>
  </diagram>
</mxfile>
